<svg width="21" height="21" viewBox="0 0 21 21" fill="none" xmlns="http://www.w3.org/2000/svg">
<path d="M11.9936 0.0394957C11.8361 -0.0313787 11.6532 -0.00599023 11.5245 0.108606L4.64885 6.12505H1.31249C0.588858 6.12505 0 6.71391 0 7.43754V13.5625C0 14.2861 0.588858 14.875 1.31249 14.875H4.64885L11.5245 20.8915C11.6059 20.9632 11.7083 20.9999 11.8124 20.9999C11.8737 20.9999 11.9358 20.9868 11.9936 20.9606C12.1502 20.8897 12.2499 20.734 12.2499 20.5624V0.437631C12.2499 0.266105 12.1501 0.11037 11.9936 0.0394957ZM11.3749 19.5982L5.10034 14.1085C5.02073 14.0385 4.91836 14 4.81246 14H1.31249C1.07185 14 0.874981 13.8032 0.874981 13.5625V7.43754C0.874981 7.19691 1.07185 7.00003 1.31249 7.00003H4.81246C4.91832 7.00003 5.02069 6.96152 5.10034 6.89155L11.3749 1.40186V19.5982Z" fill="white"/>
<path d="M15.3649 7.50409C15.3037 7.2696 15.0613 7.12433 14.832 7.19171C14.5984 7.25209 14.4584 7.49096 14.5196 7.72459C14.7541 8.62582 14.874 9.56032 14.874 10.5001C14.874 11.438 14.755 12.3717 14.5205 13.2729C14.4584 13.5057 14.5984 13.7454 14.8329 13.8058C14.8696 13.8163 14.9072 13.8207 14.9431 13.8207C15.1382 13.8207 15.315 13.6903 15.3658 13.4934C15.6204 12.5204 15.749 11.5124 15.749 10.5001C15.7491 9.48505 15.6204 8.47706 15.3649 7.50409Z" fill="white"/>
<path d="M17.2793 4.97713C17.1875 4.75401 16.932 4.64725 16.708 4.74003C16.4848 4.8319 16.379 5.08829 16.4708 5.31141C17.1525 6.95814 17.499 8.70375 17.499 10.5001C17.499 12.2974 17.1533 14.0421 16.4718 15.6862C16.3799 15.9094 16.4857 16.1658 16.7089 16.2576C16.7631 16.2804 16.82 16.2909 16.876 16.2909C17.0475 16.2909 17.2102 16.1894 17.2802 16.0214C18.0056 14.2705 18.374 12.4129 18.374 10.5002C18.3739 8.58825 18.0055 6.72976 17.2793 4.97713Z" fill="white"/>
<path d="M19.0758 2.62252C18.9638 2.40813 18.6987 2.32676 18.4852 2.43701C18.2717 2.54902 18.1877 2.81324 18.2997 3.02763C19.4932 5.31662 20.124 7.90047 20.124 10.5001C20.124 13.098 19.494 15.6801 18.3023 17.9682C18.1903 18.1826 18.2743 18.4468 18.4878 18.5588C18.5526 18.5921 18.6217 18.6087 18.6899 18.6087C18.8474 18.6087 19.0005 18.5229 19.0784 18.3733C20.335 15.9601 20.9991 13.238 20.9991 10.5001C20.9991 7.75962 20.3341 5.03665 19.0758 2.62252Z" fill="white"/>
</svg>
